<svg xmlns="http://www.w3.org/2000/svg" width="16" height="16">
    <g fill="none" fill-rule="evenodd">
        <path fill="#ff8008" fill-opacity=".69999999" d="M1 16h15V9H1z"/>
        <path fill="#9AA7B0" fill-opacity=".8" d="M7 1L3 5h4z"/>
        <path fill="#9AA7B0" fill-opacity=".8" d="M8 1v5H3v2h10V1z"/>
        <g aria-label="GLSL" fill="#312300">
            <path d="M5.29459262 14.477386q-.678125.39375-1.6375.39375-1.0687501 0-1.7000001-.61875-.63125-.621875-.63125-1.690625 0-1.075.6875-1.759375.6875-.6875 1.8187501-.6875.7375 0 1.28125.2125v.865625q-.53125-.321875-1.30625-.321875-.6843751 0-1.1156251.453125-.428125.45-.428125 1.190625 0 .75625.3875 1.178125.3875.41875 1.0625001.41875.4125 0 .6875-.134375v-1.015625h-.94375v-.725h1.8375zM8.86959282 14.789886h-2.63125v-4.6h.890625v3.8625h1.740625zM9.30396812 13.699261q.546875.453125 1.2531249.453125.425 0 .634375-.146875.209375-.15.209375-.390625 0-.209375-.175-.384375-.175-.175-.846875-.4625-.5718749-.25625-.8312499-.575-.25625-.321875-.25625-.753125 0-.621875.48125-.971875.4812499-.353125 1.2624999-.353125.7 0 1.103125.175v.853125q-.446875-.30625-1.078125-.30625-.371875 0-.603125.140625-.228125.140625-.228125.3875 0 .196875.159375.359375t.746875.421875q.675.29375.9375.61875.2625.321875.2625.771875 0 .65-.465625.99375-.4625.340625-1.3.340625-.7781249 0-1.2656249-.259375zM15.76959302 14.789886h-2.63125v-4.6h.890625v3.8625h1.740625z"/>
        </g>
    </g>
</svg>